<mxfile host="app.diagrams.net" agent="Mozilla/5.0 (Macintosh; Intel Mac OS X 10_15_7) AppleWebKit/537.36 (KHTML, like Gecko) Chrome/131.0.0.0 Safari/537.36 Edg/131.0.0.0" version="27.1.6">
  <diagram id="prtHgNgQTEPvFCAcTncT" name="Page-1">
    <mxGraphModel dx="1070" dy="667" grid="1" gridSize="10" guides="1" tooltips="1" connect="1" arrows="1" fold="1" page="1" pageScale="1" pageWidth="827" pageHeight="1169" math="0" shadow="0">
      <root>
        <mxCell id="0" />
        <mxCell id="1" parent="0" />
        <mxCell id="6VXtb1zgjtpqxOOQ8t-R-1" value="API半流程进件-风控通过返回渠道失败" style="swimlane;childLayout=stackLayout;resizeParent=1;resizeParentMax=0;startSize=20;html=1;labelBackgroundColor=none;fillColor=#B2C9AB;strokeColor=#788AA3;fontColor=#46495D;" vertex="1" parent="1">
          <mxGeometry x="170" y="220" width="590" height="1190" as="geometry" />
        </mxCell>
        <mxCell id="6VXtb1zgjtpqxOOQ8t-R-2" value="apiopfcore" style="swimlane;startSize=20;html=1;labelBackgroundColor=none;fillColor=#B2C9AB;strokeColor=#788AA3;fontColor=#46495D;" vertex="1" parent="6VXtb1zgjtpqxOOQ8t-R-1">
          <mxGeometry y="20" width="250" height="1170" as="geometry" />
        </mxCell>
        <mxCell id="6VXtb1zgjtpqxOOQ8t-R-7" value="" style="edgeStyle=orthogonalEdgeStyle;rounded=0;orthogonalLoop=1;jettySize=auto;html=1;strokeColor=#788AA3;fontColor=#46495D;fillColor=#B2C9AB;" edge="1" parent="6VXtb1zgjtpqxOOQ8t-R-2" source="6VXtb1zgjtpqxOOQ8t-R-5" target="6VXtb1zgjtpqxOOQ8t-R-6">
          <mxGeometry relative="1" as="geometry" />
        </mxCell>
        <mxCell id="6VXtb1zgjtpqxOOQ8t-R-5" value="处理授信激活逻辑" style="rounded=0;whiteSpace=wrap;html=1;labelBackgroundColor=none;fillColor=#B2C9AB;strokeColor=#788AA3;fontColor=#46495D;" vertex="1" parent="6VXtb1zgjtpqxOOQ8t-R-2">
          <mxGeometry x="59.999999999999545" y="50" width="120" height="60" as="geometry" />
        </mxCell>
        <mxCell id="6VXtb1zgjtpqxOOQ8t-R-12" value="" style="edgeStyle=orthogonalEdgeStyle;rounded=0;orthogonalLoop=1;jettySize=auto;html=1;strokeColor=#788AA3;fontColor=#46495D;fillColor=#B2C9AB;" edge="1" parent="6VXtb1zgjtpqxOOQ8t-R-2" source="6VXtb1zgjtpqxOOQ8t-R-6" target="6VXtb1zgjtpqxOOQ8t-R-11">
          <mxGeometry relative="1" as="geometry" />
        </mxCell>
        <mxCell id="6VXtb1zgjtpqxOOQ8t-R-6" value="请求风控查询当前的授信状态" style="whiteSpace=wrap;html=1;fillColor=#B2C9AB;strokeColor=#788AA3;fontColor=#46495D;rounded=0;labelBackgroundColor=none;" vertex="1" parent="6VXtb1zgjtpqxOOQ8t-R-2">
          <mxGeometry x="59.999999999999545" y="170" width="120" height="60" as="geometry" />
        </mxCell>
        <mxCell id="6VXtb1zgjtpqxOOQ8t-R-14" value="" style="edgeStyle=orthogonalEdgeStyle;rounded=0;orthogonalLoop=1;jettySize=auto;html=1;strokeColor=#788AA3;fontColor=#46495D;fillColor=#B2C9AB;" edge="1" parent="6VXtb1zgjtpqxOOQ8t-R-2" source="6VXtb1zgjtpqxOOQ8t-R-11" target="6VXtb1zgjtpqxOOQ8t-R-13">
          <mxGeometry relative="1" as="geometry" />
        </mxCell>
        <mxCell id="6VXtb1zgjtpqxOOQ8t-R-15" value="历史是none/failed状态" style="edgeLabel;html=1;align=center;verticalAlign=middle;resizable=0;points=[];strokeColor=#788AA3;fontColor=#46495D;fillColor=#B2C9AB;" vertex="1" connectable="0" parent="6VXtb1zgjtpqxOOQ8t-R-14">
          <mxGeometry x="-0.2125" relative="1" as="geometry">
            <mxPoint as="offset" />
          </mxGeometry>
        </mxCell>
        <mxCell id="6VXtb1zgjtpqxOOQ8t-R-16" style="edgeStyle=orthogonalEdgeStyle;rounded=0;orthogonalLoop=1;jettySize=auto;html=1;strokeColor=#788AA3;fontColor=#46495D;fillColor=#B2C9AB;entryX=0;entryY=0.5;entryDx=0;entryDy=0;" edge="1" parent="6VXtb1zgjtpqxOOQ8t-R-2" source="6VXtb1zgjtpqxOOQ8t-R-11" target="6VXtb1zgjtpqxOOQ8t-R-17">
          <mxGeometry relative="1" as="geometry">
            <mxPoint x="20" y="560" as="targetPoint" />
            <Array as="points">
              <mxPoint x="20" y="320" />
              <mxPoint x="20" y="570" />
            </Array>
          </mxGeometry>
        </mxCell>
        <mxCell id="6VXtb1zgjtpqxOOQ8t-R-18" value="历史是success状态" style="edgeLabel;html=1;align=center;verticalAlign=middle;resizable=0;points=[];strokeColor=#788AA3;fontColor=#46495D;fillColor=#B2C9AB;" vertex="1" connectable="0" parent="6VXtb1zgjtpqxOOQ8t-R-16">
          <mxGeometry x="-0.0048" y="-1" relative="1" as="geometry">
            <mxPoint x="1" y="56" as="offset" />
          </mxGeometry>
        </mxCell>
        <mxCell id="6VXtb1zgjtpqxOOQ8t-R-11" value="判断当前风险授信状态" style="rhombus;whiteSpace=wrap;html=1;fillColor=#B2C9AB;strokeColor=#788AA3;fontColor=#46495D;rounded=0;labelBackgroundColor=none;" vertex="1" parent="6VXtb1zgjtpqxOOQ8t-R-2">
          <mxGeometry x="40" y="280" width="160" height="80" as="geometry" />
        </mxCell>
        <mxCell id="6VXtb1zgjtpqxOOQ8t-R-13" value="请求风控重新发起授信申请" style="whiteSpace=wrap;html=1;fillColor=#B2C9AB;strokeColor=#788AA3;fontColor=#46495D;rounded=0;labelBackgroundColor=none;" vertex="1" parent="6VXtb1zgjtpqxOOQ8t-R-2">
          <mxGeometry x="60" y="420" width="120" height="60" as="geometry" />
        </mxCell>
        <mxCell id="6VXtb1zgjtpqxOOQ8t-R-33" style="edgeStyle=orthogonalEdgeStyle;rounded=0;orthogonalLoop=1;jettySize=auto;html=1;entryX=0;entryY=0.5;entryDx=0;entryDy=0;strokeColor=#788AA3;fontColor=#46495D;fillColor=#B2C9AB;" edge="1" parent="6VXtb1zgjtpqxOOQ8t-R-2" source="6VXtb1zgjtpqxOOQ8t-R-17" target="6VXtb1zgjtpqxOOQ8t-R-31">
          <mxGeometry relative="1" as="geometry">
            <Array as="points">
              <mxPoint x="120" y="630" />
              <mxPoint x="30" y="630" />
              <mxPoint x="30" y="830" />
            </Array>
          </mxGeometry>
        </mxCell>
        <mxCell id="6VXtb1zgjtpqxOOQ8t-R-17" value="复用历史的授信成功状态" style="whiteSpace=wrap;html=1;fillColor=#B2C9AB;strokeColor=#788AA3;fontColor=#46495D;rounded=0;labelBackgroundColor=none;" vertex="1" parent="6VXtb1zgjtpqxOOQ8t-R-2">
          <mxGeometry x="60" y="540" width="120" height="60" as="geometry" />
        </mxCell>
        <mxCell id="6VXtb1zgjtpqxOOQ8t-R-32" style="edgeStyle=orthogonalEdgeStyle;rounded=0;orthogonalLoop=1;jettySize=auto;html=1;entryX=0.5;entryY=0;entryDx=0;entryDy=0;strokeColor=#788AA3;fontColor=#46495D;fillColor=#B2C9AB;" edge="1" parent="6VXtb1zgjtpqxOOQ8t-R-2" source="6VXtb1zgjtpqxOOQ8t-R-27" target="6VXtb1zgjtpqxOOQ8t-R-31">
          <mxGeometry relative="1" as="geometry" />
        </mxCell>
        <mxCell id="6VXtb1zgjtpqxOOQ8t-R-27" value="接收授信通过消息" style="whiteSpace=wrap;html=1;fillColor=#B2C9AB;strokeColor=#788AA3;fontColor=#46495D;strokeWidth=2;" vertex="1" parent="6VXtb1zgjtpqxOOQ8t-R-2">
          <mxGeometry x="60" y="680" width="120" height="60" as="geometry" />
        </mxCell>
        <mxCell id="6VXtb1zgjtpqxOOQ8t-R-37" value="" style="edgeStyle=orthogonalEdgeStyle;rounded=0;orthogonalLoop=1;jettySize=auto;html=1;strokeColor=#788AA3;fontColor=#46495D;fillColor=#B2C9AB;" edge="1" parent="6VXtb1zgjtpqxOOQ8t-R-2" source="6VXtb1zgjtpqxOOQ8t-R-31" target="6VXtb1zgjtpqxOOQ8t-R-36">
          <mxGeometry relative="1" as="geometry" />
        </mxCell>
        <mxCell id="6VXtb1zgjtpqxOOQ8t-R-31" value="命中半流程配置的渠道，请求决策引擎决策返回给渠道成功/失败" style="whiteSpace=wrap;html=1;fillColor=#B2C9AB;strokeColor=#788AA3;fontColor=#46495D;rounded=0;labelBackgroundColor=none;" vertex="1" parent="6VXtb1zgjtpqxOOQ8t-R-2">
          <mxGeometry x="60" y="800" width="120" height="60" as="geometry" />
        </mxCell>
        <mxCell id="6VXtb1zgjtpqxOOQ8t-R-39" value="" style="edgeStyle=orthogonalEdgeStyle;rounded=0;orthogonalLoop=1;jettySize=auto;html=1;strokeColor=#788AA3;fontColor=#46495D;fillColor=#B2C9AB;" edge="1" parent="6VXtb1zgjtpqxOOQ8t-R-2" source="6VXtb1zgjtpqxOOQ8t-R-36" target="6VXtb1zgjtpqxOOQ8t-R-38">
          <mxGeometry relative="1" as="geometry" />
        </mxCell>
        <mxCell id="6VXtb1zgjtpqxOOQ8t-R-36" value="根据决策结果返回给渠道授信通过还是失败" style="whiteSpace=wrap;html=1;fillColor=#B2C9AB;strokeColor=#788AA3;fontColor=#46495D;rounded=0;labelBackgroundColor=none;" vertex="1" parent="6VXtb1zgjtpqxOOQ8t-R-2">
          <mxGeometry x="60" y="940" width="120" height="60" as="geometry" />
        </mxCell>
        <mxCell id="6VXtb1zgjtpqxOOQ8t-R-38" value="如果返回给渠道授信失败，单独记录特定的授信失败码" style="whiteSpace=wrap;html=1;fillColor=#B2C9AB;strokeColor=#788AA3;fontColor=#46495D;rounded=0;labelBackgroundColor=none;" vertex="1" parent="6VXtb1zgjtpqxOOQ8t-R-2">
          <mxGeometry x="60" y="1050" width="120" height="60" as="geometry" />
        </mxCell>
        <mxCell id="6VXtb1zgjtpqxOOQ8t-R-3" value="风控" style="swimlane;startSize=20;html=1;labelBackgroundColor=none;fillColor=#B2C9AB;strokeColor=#788AA3;fontColor=#46495D;" vertex="1" parent="6VXtb1zgjtpqxOOQ8t-R-1">
          <mxGeometry x="250" y="20" width="180" height="1170" as="geometry" />
        </mxCell>
        <mxCell id="6VXtb1zgjtpqxOOQ8t-R-8" value="status-query接口" style="whiteSpace=wrap;html=1;fillColor=#B2C9AB;strokeColor=#788AA3;fontColor=#46495D;rounded=0;labelBackgroundColor=none;" vertex="1" parent="6VXtb1zgjtpqxOOQ8t-R-3">
          <mxGeometry x="29.999999999999545" y="170" width="120" height="60" as="geometry" />
        </mxCell>
        <mxCell id="6VXtb1zgjtpqxOOQ8t-R-22" value="" style="edgeStyle=orthogonalEdgeStyle;rounded=0;orthogonalLoop=1;jettySize=auto;html=1;strokeColor=#788AA3;fontColor=#46495D;fillColor=#B2C9AB;dashed=1;" edge="1" parent="6VXtb1zgjtpqxOOQ8t-R-3" source="6VXtb1zgjtpqxOOQ8t-R-19" target="6VXtb1zgjtpqxOOQ8t-R-21">
          <mxGeometry relative="1" as="geometry" />
        </mxCell>
        <mxCell id="6VXtb1zgjtpqxOOQ8t-R-23" value="异步处理授信决策" style="edgeLabel;html=1;align=center;verticalAlign=middle;resizable=0;points=[];strokeColor=#788AA3;fontColor=#46495D;fillColor=#B2C9AB;" vertex="1" connectable="0" parent="6VXtb1zgjtpqxOOQ8t-R-22">
          <mxGeometry x="-0.0813" y="1" relative="1" as="geometry">
            <mxPoint as="offset" />
          </mxGeometry>
        </mxCell>
        <mxCell id="6VXtb1zgjtpqxOOQ8t-R-19" value="/v2/credit/apply接口" style="whiteSpace=wrap;html=1;fillColor=#B2C9AB;strokeColor=#788AA3;fontColor=#46495D;rounded=0;labelBackgroundColor=none;" vertex="1" parent="6VXtb1zgjtpqxOOQ8t-R-3">
          <mxGeometry x="30" y="420" width="120" height="60" as="geometry" />
        </mxCell>
        <mxCell id="6VXtb1zgjtpqxOOQ8t-R-25" value="发送授信通过消息" style="edgeStyle=orthogonalEdgeStyle;rounded=0;orthogonalLoop=1;jettySize=auto;html=1;strokeColor=#788AA3;fontColor=#46495D;fillColor=#B2C9AB;" edge="1" parent="6VXtb1zgjtpqxOOQ8t-R-3" source="6VXtb1zgjtpqxOOQ8t-R-21">
          <mxGeometry relative="1" as="geometry">
            <mxPoint x="90" y="680" as="targetPoint" />
          </mxGeometry>
        </mxCell>
        <mxCell id="6VXtb1zgjtpqxOOQ8t-R-21" value="授信结果为授信成功，通知apiopfcore" style="whiteSpace=wrap;html=1;fillColor=#B2C9AB;strokeColor=#788AA3;fontColor=#46495D;rounded=0;labelBackgroundColor=none;" vertex="1" parent="6VXtb1zgjtpqxOOQ8t-R-3">
          <mxGeometry x="30" y="560" width="120" height="60" as="geometry" />
        </mxCell>
        <mxCell id="6VXtb1zgjtpqxOOQ8t-R-26" value="rocketmq" style="strokeWidth=2;html=1;shape=mxgraph.flowchart.direct_data;whiteSpace=wrap;strokeColor=#788AA3;fontColor=#46495D;fillColor=#B2C9AB;" vertex="1" parent="6VXtb1zgjtpqxOOQ8t-R-3">
          <mxGeometry x="40" y="680" width="100" height="60" as="geometry" />
        </mxCell>
        <mxCell id="6VXtb1zgjtpqxOOQ8t-R-4" value="决策引擎" style="swimlane;startSize=20;html=1;labelBackgroundColor=none;fillColor=#B2C9AB;strokeColor=#788AA3;fontColor=#46495D;" vertex="1" parent="6VXtb1zgjtpqxOOQ8t-R-1">
          <mxGeometry x="430" y="20" width="160" height="1170" as="geometry" />
        </mxCell>
        <mxCell id="6VXtb1zgjtpqxOOQ8t-R-34" value="决策接口" style="whiteSpace=wrap;html=1;fillColor=#B2C9AB;strokeColor=#788AA3;fontColor=#46495D;rounded=0;labelBackgroundColor=none;" vertex="1" parent="6VXtb1zgjtpqxOOQ8t-R-4">
          <mxGeometry x="20" y="800" width="120" height="60" as="geometry" />
        </mxCell>
        <mxCell id="6VXtb1zgjtpqxOOQ8t-R-10" style="edgeStyle=orthogonalEdgeStyle;rounded=0;orthogonalLoop=1;jettySize=auto;html=1;entryX=0;entryY=0.5;entryDx=0;entryDy=0;strokeColor=#788AA3;fontColor=#46495D;fillColor=#B2C9AB;" edge="1" parent="6VXtb1zgjtpqxOOQ8t-R-1" source="6VXtb1zgjtpqxOOQ8t-R-6" target="6VXtb1zgjtpqxOOQ8t-R-8">
          <mxGeometry relative="1" as="geometry" />
        </mxCell>
        <mxCell id="6VXtb1zgjtpqxOOQ8t-R-20" style="edgeStyle=orthogonalEdgeStyle;rounded=0;orthogonalLoop=1;jettySize=auto;html=1;entryX=0;entryY=0.5;entryDx=0;entryDy=0;strokeColor=#788AA3;fontColor=#46495D;fillColor=#B2C9AB;" edge="1" parent="6VXtb1zgjtpqxOOQ8t-R-1" source="6VXtb1zgjtpqxOOQ8t-R-13" target="6VXtb1zgjtpqxOOQ8t-R-19">
          <mxGeometry relative="1" as="geometry" />
        </mxCell>
        <mxCell id="6VXtb1zgjtpqxOOQ8t-R-28" value="" style="edgeStyle=orthogonalEdgeStyle;rounded=0;orthogonalLoop=1;jettySize=auto;html=1;strokeColor=#788AA3;fontColor=#46495D;fillColor=#B2C9AB;" edge="1" parent="6VXtb1zgjtpqxOOQ8t-R-1" source="6VXtb1zgjtpqxOOQ8t-R-26" target="6VXtb1zgjtpqxOOQ8t-R-27">
          <mxGeometry relative="1" as="geometry" />
        </mxCell>
        <mxCell id="6VXtb1zgjtpqxOOQ8t-R-35" style="edgeStyle=orthogonalEdgeStyle;rounded=0;orthogonalLoop=1;jettySize=auto;html=1;strokeColor=#788AA3;fontColor=#46495D;fillColor=#B2C9AB;" edge="1" parent="6VXtb1zgjtpqxOOQ8t-R-1" source="6VXtb1zgjtpqxOOQ8t-R-31" target="6VXtb1zgjtpqxOOQ8t-R-34">
          <mxGeometry relative="1" as="geometry" />
        </mxCell>
      </root>
    </mxGraphModel>
  </diagram>
</mxfile>
